<svg width="25" height="30" viewBox="0 0 25 30" fill="none" xmlns="http://www.w3.org/2000/svg">
<path d="M6.73437 29.414C6.14913 29.0292 5.63045 28.5538 5.19825 28.0059C4.72284 27.4404 4.28236 26.8471 3.8792 26.2293C2.93312 24.8595 2.19118 23.3624 1.67614 21.784C1.05743 19.9505 0.757812 18.1931 0.757812 16.4743C0.757812 14.5546 1.17802 12.8788 1.99987 11.4707C2.60911 10.3701 3.50483 9.45036 4.59438 8.80665C5.65028 8.15849 6.86353 7.80378 8.10629 7.7799C8.54134 7.7799 9.00978 7.84224 9.50698 7.96142C9.86411 8.06134 10.2992 8.21902 10.8307 8.4152C11.5069 8.67281 11.8789 8.83049 12.005 8.86899C12.4011 9.012 12.7341 9.07434 12.9957 9.07434C13.1942 9.07434 13.4743 9.012 13.7925 8.91666C13.9715 8.85432 14.3092 8.74431 14.7925 8.53988C15.2711 8.36753 15.6477 8.21994 15.9473 8.10993C16.4065 7.97608 16.8508 7.85233 17.2469 7.78999C17.7165 7.71683 18.193 7.69745 18.6671 7.73223C19.4886 7.7853 20.2977 7.95734 21.0686 8.24286C22.3293 8.74431 23.3487 9.52721 24.1075 10.6401C23.7868 10.8355 23.4858 11.0608 23.2086 11.313C22.6053 11.8416 22.0914 12.4621 21.6864 13.1511C21.157 14.0926 20.8826 15.1533 20.8896 16.2304C20.9091 17.5533 21.2523 18.7184 21.9285 19.7259C22.4257 20.4726 23.0718 21.1112 23.8273 21.6025C24.2141 21.8601 24.5472 22.037 24.8663 22.1562C24.7169 22.6146 24.5574 23.0583 24.3691 23.4983C23.942 24.4851 23.4244 25.4311 22.8227 26.3246C22.2866 27.0938 21.8664 27.6667 21.5473 28.0481C21.0501 28.6302 20.5714 29.0748 20.0882 29.3847C19.5566 29.7331 18.9287 29.9192 18.2905 29.9192C17.8583 29.9356 17.4261 29.8839 17.0104 29.7661C16.6532 29.6469 16.2998 29.5176 15.952 29.37C15.5903 29.2059 15.2174 29.0671 14.8361 28.9547C13.8933 28.7154 12.9049 28.7139 11.9614 28.9502C11.5746 29.0602 11.2026 29.1885 10.8353 29.3462C10.3186 29.5607 9.97542 29.7046 9.77691 29.7661C9.38082 29.8807 8.96989 29.9522 8.55433 29.976C7.9115 29.976 7.31226 29.7945 6.7186 29.4269L6.73437 29.414ZM15.2127 6.8485C14.3723 7.26378 13.5699 7.44071 12.7731 7.38295C12.6478 6.58998 12.7731 5.77866 13.1061 4.89034C13.3896 4.13776 13.8085 3.44206 14.3426 2.83685C14.9066 2.19973 15.5909 1.67751 16.3573 1.29947C17.1736 0.884191 17.9519 0.65959 18.6958 0.626587C18.7923 1.45715 18.6958 2.27397 18.3869 3.15679C18.1011 3.93719 17.6829 4.66384 17.1504 5.30562C16.6069 5.94361 15.9399 6.46785 15.1886 6.84758L15.2127 6.8485Z" fill="white"/>
</svg>
